<?xml version="1.0" encoding="UTF-8"?>
<svg xmlns="http://www.w3.org/2000/svg" xmlns:xlink="http://www.w3.org/1999/xlink" width="120px" height="120px" viewBox="0 0 120 120" version="1.1">
<g id="surface1">
<path style=" stroke:none;fill-rule:nonzero;fill:rgb(0%,28.235294%,58.431373%);fill-opacity:1;" d="M 30.882812 60.664062 L 30.882812 60.976562 C 30.882812 60.976562 30.277344 61.839844 28.324219 61.839844 C 26.375 61.839844 24.679688 60.773438 24.679688 58.710938 C 24.679688 58.710938 24.535156 56.152344 27.863281 56.152344 C 31.195312 56.152344 31.03125 58.308594 31.03125 59.078125 L 32.816406 59.078125 Z M 52.140625 61.527344 C 52.140625 61.527344 52.011719 58.839844 49.234375 57.460938 C 49.234375 57.460938 51.902344 56.28125 51.992188 52.289062 C 51.753906 48.054688 48.570312 46.417969 45.679688 46.417969 L 24.644531 46.417969 L 21.421875 49.179688 L 21.421875 49.785156 L 19.839844 50.648438 L 16.308594 46.398438 L 7.601562 46.398438 L 4.011719 49.214844 L 4.011719 71.59375 L 12.515625 71.59375 L 16.195312 68.777344 L 16.195312 64.011719 L 22.914062 71.59375 L 29.761719 71.59375 L 30.9375 70.820312 L 30.9375 71.59375 L 44.191406 71.59375 C 44.191406 71.59375 45.921875 71.539062 47.152344 70.269531 L 50.171875 67.507812 C 50.191406 67.527344 52.730469 64.933594 52.140625 61.527344 "/>
<path style=" stroke:none;fill-rule:nonzero;fill:rgb(99.215686%,86.27451%,0%);fill-opacity:1;" d="M 47.578125 57.644531 C 50.484375 56.410156 51.257812 54.019531 51.164062 52.011719 C 51.054688 50.007812 49.378906 47.246094 45.882812 47.152344 L 25.308594 47.152344 L 25.308594 49.105469 C 23.613281 49.363281 20.796875 50.539062 19.621094 51.605469 L 15.828125 47.042969 L 8.042969 47.042969 L 8.042969 68.078125 L 15.367188 68.078125 L 15.367188 56.871094 L 25.140625 68.078125 L 32.761719 68.078125 L 32.761719 65.925781 L 33.164062 65.925781 C 35.6875 65.90625 37.96875 64.96875 39.625 63.257812 C 40.914062 61.933594 41.722656 60.238281 41.945312 58.398438 L 33.921875 58.398438 C 33.734375 60.773438 31.507812 62.648438 28.804688 62.648438 C 25.96875 62.648438 23.667969 60.605469 23.667969 58.085938 C 23.667969 55.5625 25.96875 53.519531 28.804688 53.519531 C 31.03125 53.519531 32.925781 54.792969 33.644531 56.558594 L 42.035156 56.558594 C 41.578125 52.453125 37.140625 50.117188 33.3125 49.324219 C 33.09375 49.289062 32.945312 49.066406 33 48.847656 C 33.035156 48.625 33.257812 48.480469 33.480469 48.535156 C 37.820312 49.417969 42.863281 52.214844 42.863281 57.222656 C 42.882812 59.742188 41.964844 62.097656 40.234375 63.847656 C 38.503906 65.59375 36.164062 66.625 33.589844 66.734375 L 33.589844 68.078125 L 45.882812 68.078125 C 45.882812 68.078125 51.164062 68.28125 51.460938 62.503906 C 51.734375 59.742188 49.160156 57.808594 47.578125 57.644531 "/>
</g>
</svg>
