<?xml version="1.0" encoding="UTF-8"?>
<svg xmlns="http://www.w3.org/2000/svg" xmlns:xlink="http://www.w3.org/1999/xlink" width="100px" height="100px" viewBox="0 0 100 100" version="1.1">
<g id="surface1">
<path style=" stroke:none;fill-rule:nonzero;fill:rgb(0%,28.235294%,58.431373%);fill-opacity:1;" d="M 25.734375 50.550781 L 25.734375 50.8125 C 25.734375 50.8125 25.230469 51.535156 23.605469 51.535156 C 21.980469 51.535156 20.566406 50.644531 20.566406 48.925781 C 20.566406 48.925781 20.445312 46.792969 23.222656 46.792969 C 25.996094 46.792969 25.859375 48.589844 25.859375 49.234375 L 27.347656 49.234375 Z M 43.449219 51.273438 C 43.449219 51.273438 43.34375 49.035156 41.027344 47.882812 C 41.027344 47.882812 43.25 46.902344 43.328125 43.574219 C 43.128906 40.046875 40.476562 38.679688 38.066406 38.679688 L 20.535156 38.679688 L 17.851562 40.980469 L 17.851562 41.488281 L 16.535156 42.207031 L 13.589844 38.664062 L 6.335938 38.664062 L 3.34375 41.011719 L 3.34375 59.664062 L 10.429688 59.664062 L 13.496094 57.316406 L 13.496094 53.34375 L 19.09375 59.664062 L 24.800781 59.664062 L 25.78125 59.019531 L 25.78125 59.664062 L 36.824219 59.664062 C 36.824219 59.664062 38.265625 59.617188 39.292969 58.558594 L 41.808594 56.257812 C 41.824219 56.273438 43.941406 54.109375 43.449219 51.273438 "/>
<path style=" stroke:none;fill-rule:nonzero;fill:rgb(99.215686%,86.27451%,0%);fill-opacity:1;" d="M 39.648438 48.035156 C 42.070312 47.007812 42.714844 45.015625 42.636719 43.34375 C 42.546875 41.671875 41.148438 39.371094 38.234375 39.292969 L 21.089844 39.292969 L 21.089844 40.921875 C 19.679688 41.136719 17.332031 42.117188 16.351562 43.007812 L 13.191406 39.203125 L 6.703125 39.203125 L 6.703125 56.734375 L 12.808594 56.734375 L 12.808594 47.394531 L 20.949219 56.734375 L 27.300781 56.734375 L 27.300781 54.9375 L 27.636719 54.9375 C 29.738281 54.921875 31.640625 54.140625 33.019531 52.714844 C 34.09375 51.609375 34.769531 50.199219 34.953125 48.664062 L 28.265625 48.664062 C 28.113281 50.644531 26.257812 52.207031 24.003906 52.207031 C 21.640625 52.207031 19.722656 50.507812 19.722656 48.40625 C 19.722656 46.304688 21.640625 44.601562 24.003906 44.601562 C 25.859375 44.601562 27.4375 45.660156 28.035156 47.132812 L 35.03125 47.132812 C 34.648438 43.710938 30.949219 41.765625 27.761719 41.105469 C 27.578125 41.074219 27.453125 40.890625 27.5 40.707031 C 27.53125 40.519531 27.714844 40.398438 27.898438 40.445312 C 31.519531 41.179688 35.722656 43.511719 35.722656 47.683594 C 35.734375 49.785156 34.96875 51.75 33.527344 53.207031 C 32.085938 54.664062 30.136719 55.519531 27.992188 55.613281 L 27.992188 56.734375 L 38.234375 56.734375 C 38.234375 56.734375 42.636719 56.902344 42.882812 52.085938 C 43.113281 49.785156 40.964844 48.175781 39.648438 48.035156 "/>
</g>
</svg>
