<?xml version="1.0" encoding="UTF-8"?>
<svg xmlns="http://www.w3.org/2000/svg" xmlns:xlink="http://www.w3.org/1999/xlink" width="60px" height="60px" viewBox="0 0 60 60" version="1.1">
<g id="surface1">
<path style=" stroke:none;fill-rule:nonzero;fill:rgb(0%,28.235294%,58.431373%);fill-opacity:1;" d="M 15.441406 30.332031 L 15.441406 30.488281 C 15.441406 30.488281 15.136719 30.921875 14.164062 30.921875 C 13.1875 30.921875 12.339844 30.386719 12.339844 29.355469 C 12.339844 29.355469 12.265625 28.078125 13.933594 28.078125 C 15.597656 28.078125 15.515625 29.152344 15.515625 29.539062 L 16.40625 29.539062 Z M 26.070312 30.765625 C 26.070312 30.765625 26.007812 29.421875 24.617188 28.730469 C 24.617188 28.730469 25.949219 28.140625 25.996094 26.144531 C 25.878906 24.027344 24.285156 23.207031 22.839844 23.207031 L 12.320312 23.207031 L 10.710938 24.589844 L 10.710938 24.894531 L 9.921875 25.324219 L 8.152344 23.199219 L 3.800781 23.199219 L 2.007812 24.605469 L 2.007812 35.796875 L 6.257812 35.796875 L 8.097656 34.390625 L 8.097656 32.007812 L 11.457031 35.796875 L 14.878906 35.796875 L 15.46875 35.410156 L 15.46875 35.796875 L 22.09375 35.796875 C 22.09375 35.796875 22.960938 35.769531 23.578125 35.136719 L 25.085938 33.753906 C 25.09375 33.765625 26.363281 32.464844 26.070312 30.765625 "/>
<path style=" stroke:none;fill-rule:nonzero;fill:rgb(99.215686%,86.27451%,0%);fill-opacity:1;" d="M 23.789062 28.820312 C 25.242188 28.207031 25.628906 27.007812 25.582031 26.007812 C 25.527344 25.003906 24.691406 23.621094 22.941406 23.578125 L 12.652344 23.578125 L 12.652344 24.550781 C 11.808594 24.679688 10.398438 25.269531 9.808594 25.804688 L 7.914062 23.519531 L 4.019531 23.519531 L 4.019531 34.039062 L 7.683594 34.039062 L 7.683594 28.4375 L 12.570312 34.039062 L 16.378906 34.039062 L 16.378906 32.964844 L 16.582031 32.964844 C 17.84375 32.953125 18.984375 32.484375 19.8125 31.628906 C 20.457031 30.964844 20.863281 30.121094 20.972656 29.199219 L 16.960938 29.199219 C 16.867188 30.386719 15.753906 31.324219 14.402344 31.324219 C 12.984375 31.324219 11.835938 30.304688 11.835938 29.042969 C 11.835938 27.78125 12.984375 26.761719 14.402344 26.761719 C 15.515625 26.761719 16.464844 27.394531 16.820312 28.277344 L 21.019531 28.277344 C 20.789062 26.226562 18.570312 25.058594 16.65625 24.664062 C 16.546875 24.644531 16.472656 24.535156 16.5 24.421875 C 16.519531 24.3125 16.628906 24.238281 16.738281 24.265625 C 18.910156 24.707031 21.433594 26.105469 21.433594 28.609375 C 21.441406 29.871094 20.980469 31.050781 20.117188 31.921875 C 19.25 32.796875 18.082031 33.3125 16.792969 33.367188 L 16.792969 34.039062 L 22.941406 34.039062 C 22.941406 34.039062 25.582031 34.140625 25.730469 31.25 C 25.867188 29.871094 24.578125 28.90625 23.789062 28.820312 "/>
</g>
</svg>
