<svg xmlns="http://www.w3.org/2000/svg" width="93.174" height="77.858" viewBox="0 0 93.174 77.858">
    <defs>
        <style>
            .cls-1{fill:#ffdb18}.cls-10,.cls-2,.cls-7{fill:none}.cls-3{fill:#002b5b}.cls-4,.cls-5,.cls-8{fill:#fff}.cls-4,.cls-6,.cls-7,.cls-8,.cls-9{stroke:#002b5b}.cls-10,.cls-4,.cls-6,.cls-7,.cls-8,.cls-9{stroke-miterlimit:10;stroke-width:2px}.cls-6{fill:#e5e9ee}.cls-10,.cls-8{stroke-linecap:round}.cls-9{fill:#2ab6f3}.cls-10{stroke:#fff;stroke-linejoin:round}.cls-11{stroke:none}
        </style>
    </defs>
    <g id="Group_10271" data-name="Group 10271" transform="translate(-1206.935 -984)">
        <path id="Path_15" d="M5.294 13.018C16.7-.836 32.841 8.67 42.58 8.8S65.953-9.569 83.205 6.693s14.056 63.545-35.617 63.545-53.703-43.367-42.294-57.22z" class="cls-1" data-name="Path 15" transform="rotate(180 649.813 530.398)"/>
        <g id="Group_73" data-name="Group 73" transform="translate(1222.25 984)">
            <path id="Rectangle_78_Copy" d="M0 0h77.375v77.375H0z" class="cls-2" data-name="Rectangle 78 Copy"/>
            <path id="Rectangle_100" d="M0 0h28.826v16.482a4 4 0 0 1-4 4H4a4 4 0 0 1-4-4V0z" class="cls-3" data-name="Rectangle 100" transform="translate(18.965 21.999)"/>
            <path id="Combined_Shape_Copy_2" d="M33 24.275a77.957 77.957 0 0 1-33-7.282l.412-.811A21.24 21.24 0 0 1 13.689 5.335L33 0l19.308 5.335a21.24 21.24 0 0 1 13.276 10.847l.412.811A77.957 77.957 0 0 1 33 24.275z" class="cls-4" data-name="Combined Shape Copy 2" transform="translate(.759 44.756)"/>
            <path id="Combined_Shape" d="M0 14.542V2.551A21.225 21.225 0 0 1 5.31 0v16.164Q2.616 15.449 0 14.542z" class="cls-4" data-name="Combined Shape" transform="translate(8.344 50.591)"/>
            <path id="Rectangle_97" d="M10 0h13.378a10 10 0 0 1 10 10v.62H0V10A10 10 0 0 1 10 0z" class="cls-4" data-name="Rectangle 97" transform="translate(16.689 40.205)"/>
            <path id="Rectangle_101" d="M0 0h31.102v6.827H0z" class="cls-5" data-name="Rectangle 101" transform="translate(17.447 49.308)"/>
            <path id="Rectangle_97_Copy" d="M0 0h17.447v9.34a6.069 6.069 0 0 1-4.075 5.732l-4.648 1.617-4.649-1.617A6.069 6.069 0 0 1 0 9.34z" class="cls-6" data-name="Rectangle 97 Copy" transform="translate(25.033 37.929)"/>
            <path id="Combined_Shape-2" d="M15.126 40.963a6.071 6.071 0 0 1-4.211-1.7l-4.4-4.24a6.067 6.067 0 0 1-1.858-4.37v-2.075a3.87 3.87 0 0 1-.374.019c-2.35 0-4.255-2.25-4.255-5.024s-.416-5.8 1.934-5.8a5.957 5.957 0 0 1 2.695.855v-7.807h.056a12.037 12.037 0 0 1 23.951 0h.056v7.812a5.957 5.957 0 0 1 2.695-.855c2.35 0 1.934 3.022 1.934 5.8s-1.9 5.024-4.255 5.024c-.126 0-.251-.007-.374-.019v2.076a6.067 6.067 0 0 1-1.858 4.37l-4.4 4.24a6.071 6.071 0 0 1-4.211 1.7z" class="cls-6" data-name="Combined Shape" transform="translate(16.689 8.344)"/>
            <circle id="Oval_20" cx="1.138" cy="1.138" r="1.138" class="cls-3" data-name="Oval 20" transform="translate(27.309 28.068)"/>
            <circle id="Oval_20_Copy" cx="1.138" cy="1.138" r="1.138" class="cls-3" data-name="Oval 20 Copy" transform="translate(37.929 28.068)"/>
            <path id="Oval_21" d="M0 0c0 1.257 1.515 2.276 2.655 2.276S5.31 1.257 5.31 0" class="cls-7" data-name="Oval 21" transform="translate(31.102 34.895)"/>
            <path id="Path_36" d="M1.533 11.8l.676-.234a6.827 6.827 0 0 1 5.312.357L16 16.206c4.815 2.431 10.69-2.343 9.295-7.553V21.24s1.533-8.7 1.533-12.587S20.411 0 13.8 0 0 4.425 0 8.653a80.7 80.7 0 0 0 1.533 11.8z" class="cls-3" data-name="Path 36" transform="translate(20.482 6.827)"/>
            <path id="Path_36-2" d="M-10.072 11.8l-.676-.234a6.827 6.827 0 0 0-5.312.357l-8.483 4.283c-4.815 2.431-10.69-2.343-9.295-7.553V21.24s-1.533-8.7-1.533-12.587S-28.951 0-22.339 0s13.8 4.425 13.8 8.653a80.7 80.7 0 0 1-1.533 11.8z" class="cls-3" data-name="Path 36" transform="translate(56.33 6.827)"/>
            <path id="Combined_Shape-3" d="M0 18.119v-7.09A11.4 11.4 0 0 1 3.117 4.61V2.346a1.558 1.558 0 0 1 3.105-.186A16.228 16.228 0 0 1 14.414 0 16.2 16.2 0 0 1 22.6 2.162a1.558 1.558 0 0 1 3.105.184v2.28a11.215 11.215 0 0 1 3.05 6.4l.067 7.09a53.146 53.146 0 0 1-14.413 2.362A53.148 53.148 0 0 1 0 18.119z" class="cls-4" data-name="Combined Shape" transform="translate(18.965 4.551)"/>
            <path id="Rectangle_99" d="M2 0h2.827a2 2 0 0 1 2 2v5.586H0V2a2 2 0 0 1 2-2z" class="cls-4" data-name="Rectangle 99" transform="translate(30.343 2.276)"/>
            <path id="Oval_24" d="M12.9 3.034C12.9 1.359 10.009 0 6.448 0S0 1.359 0 3.034" class="cls-4" data-name="Oval 24" transform="translate(27.309 9.103)"/>
            <path id="Oval_24-2" d="M19.723-2c0 .838-4.415 1.517-9.862 1.517S0-1.162 0-2" class="cls-8" data-name="Oval 24" transform="translate(23.516 21.723)"/>
            <g id="Oval_9" class="cls-9" data-name="Oval 9" transform="translate(44.756 44.756)">
                <circle cx="15.551" cy="15.551" r="15.551" class="cls-11"/>
                <circle cx="15.551" cy="15.551" r="16.551" class="cls-2"/>
            </g>
            <path id="Stroke_1" d="M0 12.137L12.137 0" class="cls-10" data-name="Stroke 1" transform="translate(53.859 52.342)"/>
            <path id="Stroke_3" d="M12.137 0L0 12.137" class="cls-10" data-name="Stroke 3" transform="translate(56.135 55.377)"/>
            <path id="Stroke_5" d="M1.573 0L0 3.793l3.793-1.574" class="cls-10" data-name="Stroke 5" transform="translate(52.342 65.238)"/>
            <path id="Stroke_7" d="M0 .521a1.777 1.777 0 0 1 2.514 2.513" class="cls-10" data-name="Stroke 7" transform="translate(65.997 51.584)"/>
            <path id="Stroke_9" d="M0 0l2.276 2.276" class="cls-10" data-name="Stroke 9" transform="translate(65.238 53.859)"/>
            <path id="Stroke_11" d="M3.74 0L9.1 5.364 5.366 9.1 0 3.737" class="cls-10" data-name="Stroke 11" transform="translate(59.928 60.687)"/>
            <path id="Stroke_13" d="M5.363 9.1L0 3.739 3.738 0 9.1 5.363" class="cls-10" data-name="Stroke 13" transform="translate(51.584 51.584)"/>
            <path id="Stroke_15" d="M0 .759L.759 0" class="cls-10" data-name="Stroke 15" transform="translate(56.894 54.618)"/>
            <path id="Stroke_17" d="M0 .759L.759 0" class="cls-10" data-name="Stroke 17" transform="translate(65.238 62.962)"/>
            <path id="Rectangle_103" d="M0 0h1.517v14.413H0z" class="cls-3" data-name="Rectangle 103" transform="translate(33.378 54.618)"/>
            <path id="Rectangle_104" d="M0 0h6.069v1.517H0z" class="cls-3" data-name="Rectangle 104" transform="translate(23.516 60.687)"/>
            <path id="Rectangle_104_Copy" d="M0 0h6.069v1.517H0z" class="cls-3" data-name="Rectangle 104 Copy" transform="translate(38.688 60.687)"/>
            <path id="Path_32" d="M0 0a26.964 26.964 0 0 0 4.172.759A26.964 26.964 0 0 0 8.344 0" class="cls-4" data-name="Path 32" transform="translate(29.585 40.205)"/>
        </g>
    </g>
</svg>
