<svg xmlns:xlink="http://www.w3.org/1999/xlink" xmlns:inkscape="http://www.inkscape.org/namespaces/inkscape" xmlns:sodipodi="http://sodipodi.sourceforge.net/DTD/sodipodi-0.dtd" xmlns="http://www.w3.org/2000/svg" xmlns:svg="http://www.w3.org/2000/svg" version="1.1" id="layer" x="0px" y="0px" viewBox="-153 -46 652 652" style="enable-background:new -153 -46 652 652;" xml:space="preserve" sodipodi:docname="national-commercial-bank-ncb-jamaica-ltd-vector-logo.svg" inkscape:version="1.2.1 (9c6d41e410, 2022-07-14)" width="32"  height="32" ><defs id="defs299"/><sodipodi:namedview id="namedview297" pagecolor="#ffffff" bordercolor="#000000" borderopacity="0.25" inkscape:showpageshadow="2" inkscape:pageopacity="0.0" inkscape:pagecheckerboard="0" inkscape:deskcolor="#d1d1d1" showgrid="false" inkscape:zoom="1.345092" inkscape:cx="173.22235" inkscape:cy="368.748" inkscape:window-width="1920" inkscape:window-height="1057" inkscape:window-x="-8" inkscape:window-y="-8" inkscape:window-maximized="1" inkscape:current-layer="g294"/>
<style type="text/css" id="style280">
	.st0{fill:#004895;}
	.st1{fill:#FDDC00;}
</style>
<g id="g294">
	<path class="st0" d="M14.8,283.6v1.7c0,0-3.3,4.7-13.9,4.7c-10.6,0-19.8-5.8-19.8-17c0,0-0.8-13.9,17.3-13.9s17.2,11.7,17.2,15.9   h9.7L14.8,283.6z M130.3,288.3c0,0-0.7-14.6-15.8-22.1c0,0,14.5-6.4,15-28.1c-1.3-23-18.6-31.9-34.3-31.9H-19.1l-17.5,15v3.3   l-8.6,4.7l-19.2-23.1h-47.3l-19.5,15.3v121.6H-85l20-15.3v-25.9l36.5,41.2H8.7l6.4-4.2v4.2h72c0,0,9.4-0.3,16.1-7.2l16.4-15   C119.7,320.9,133.5,306.8,130.3,288.3" id="path282"/>
	<path class="st1" d="M105.5,267.2c15.8-6.7,20-19.7,19.5-30.6c-0.6-10.9-9.7-25.9-28.7-26.4H-15.5v10.6   c-9.2,1.4-24.5,7.8-30.9,13.6l-20.6-24.8h-42.3v114.3h39.8V263l53.1,60.9h41.4v-9.5v-2.2l2.2,0c13.7-0.1,26.1-5.2,35.1-14.5   c7-7.2,11.4-16.4,12.6-26.4H31.3c-1,12.9-13.1,23.1-27.8,23.1c-15.4,0-27.9-11.1-27.9-24.8c0-13.7,12.5-24.8,27.9-24.8   c12.1,0,22.4,6.9,26.3,16.5h45.6C72.9,239,48.8,226.3,28,222c-1.2-0.2-2-1.4-1.7-2.6c0.2-1.2,1.4-2,2.6-1.7c23.6,4.8,51,20,51,47.2   c0.1,13.7-4.9,26.5-14.3,36c-9.4,9.5-22.1,15.1-36.1,15.7v7.3h66.8c0,0,28.7,1.1,30.3-30.3C128.1,278.6,114.1,268.1,105.5,267.2" id="path284"/>
	
	
	
	
</g>
</svg>